<svg xmlns="http://www.w3.org/2000/svg" viewBox="0 0 1200 800" role="img" aria-label="Fossil wall">
  <defs>
    <linearGradient id="stone" x1="0" x2="1" y1="0" y2="1">
      <stop offset="0" stop-color="#d6b283" />
      <stop offset="1" stop-color="#b1854f" />
    </linearGradient>
    <linearGradient id="shadow" x1="0" x2="0" y1="0" y2="1">
      <stop offset="0" stop-color="#6f4b24" stop-opacity="0.12" />
      <stop offset="1" stop-color="#6f4b24" stop-opacity="0.36" />
    </linearGradient>
  </defs>

  <rect width="1200" height="800" fill="url(#stone)" />
  <rect width="1200" height="800" fill="url(#shadow)" />

  <g fill="#a77d49" opacity="0.45">
    <ellipse cx="125" cy="100" rx="16" ry="10" />
    <ellipse cx="260" cy="90" rx="12" ry="8" />
    <ellipse cx="410" cy="140" rx="18" ry="11" />
    <ellipse cx="560" cy="110" rx="13" ry="9" />
    <ellipse cx="700" cy="95" rx="15" ry="10" />
    <ellipse cx="840" cy="130" rx="14" ry="8" />
    <ellipse cx="1020" cy="92" rx="17" ry="10" />
    <ellipse cx="1140" cy="155" rx="13" ry="8" />

    <ellipse cx="165" cy="305" rx="14" ry="9" />
    <ellipse cx="320" cy="280" rx="18" ry="11" />
    <ellipse cx="470" cy="325" rx="11" ry="8" />
    <ellipse cx="620" cy="290" rx="16" ry="10" />
    <ellipse cx="765" cy="315" rx="12" ry="7" />
    <ellipse cx="930" cy="290" rx="15" ry="9" />
    <ellipse cx="1075" cy="320" rx="14" ry="9" />

    <ellipse cx="90" cy="515" rx="14" ry="9" />
    <ellipse cx="250" cy="560" rx="11" ry="8" />
    <ellipse cx="430" cy="520" rx="15" ry="10" />
    <ellipse cx="590" cy="555" rx="12" ry="8" />
    <ellipse cx="760" cy="540" rx="17" ry="10" />
    <ellipse cx="920" cy="575" rx="13" ry="8" />
    <ellipse cx="1085" cy="530" rx="16" ry="10" />

    <ellipse cx="145" cy="705" rx="13" ry="8" />
    <ellipse cx="330" cy="690" rx="15" ry="9" />
    <ellipse cx="510" cy="720" rx="12" ry="8" />
    <ellipse cx="680" cy="690" rx="14" ry="9" />
    <ellipse cx="860" cy="715" rx="16" ry="10" />
    <ellipse cx="1035" cy="700" rx="13" ry="8" />
  </g>

  <g stroke="#8a5f34" stroke-width="8" stroke-linecap="round" fill="none">
    <path d="M150 255c58-48 116-74 177-72h204c70 0 125 21 182 72" />
    <path d="M248 252l-33-51" />
    <path d="M283 256l-27-64" />
    <path d="M322 257l-17-70" />
    <path d="M362 257l-6-72" />
    <path d="M405 257l6-72" />
    <path d="M447 256l18-69" />
    <path d="M488 254l29-62" />
    <path d="M530 252l36-53" />

    <path d="M750 516c42-35 86-54 132-53h148c53 0 95 15 138 51" />
    <path d="M822 514l-24-37" />
    <path d="M851 516l-18-48" />
    <path d="M882 517l-9-52" />
    <path d="M915 517l2-52" />
    <path d="M948 517l12-50" />
    <path d="M979 516l21-44" />
    <path d="M1008 514l28-38" />
  </g>

  <g fill="#efe7d6" stroke="#8a5f34" stroke-width="8" stroke-linejoin="round">
    <path d="M110 256c44-34 90-40 144-30-18 40-18 62 0 102-53 10-98 3-144-29-12-9-12-26 0-33z" />
    <path d="M742 517c30-25 61-30 99-23-13 29-13 47 0 76-37 8-69 3-99-21-8-8-8-24 0-32z" />
    <path d="M793 517c84-65 208-65 292 0-84 64-208 64-292 0z" />
    <ellipse cx="643" cy="255" rx="13" ry="13" fill="#bea584" />
    <ellipse cx="643" cy="255" rx="6" ry="6" fill="#8e6f4b" />
    <ellipse cx="1044" cy="517" rx="10" ry="10" fill="#bea584" />
    <ellipse cx="1044" cy="517" rx="5" ry="5" fill="#8e6f4b" />
  </g>

  <g stroke="#8a5f34" stroke-width="6" fill="none" opacity="0.65">
    <circle cx="308" cy="590" r="95" />
    <circle cx="308" cy="590" r="75" />
    <circle cx="308" cy="590" r="56" />
    <circle cx="308" cy="590" r="39" />
    <circle cx="308" cy="590" r="24" />
  </g>
</svg>
